<?xml version="1.0" encoding="utf-8"?>
<!-- Generator: Adobe Illustrator 26.5.0, SVG Export Plug-In . SVG Version: 6.00 Build 0)  -->
<svg version="1.1" id="Layer_1" xmlns="http://www.w3.org/2000/svg" xmlns:xlink="http://www.w3.org/1999/xlink" x="0px" y="0px"
	 viewBox="0 0 260 50" style="enable-background:new 0 0 260 50;" xml:space="preserve">
<style type="text/css">
	.st0{fill:#6F85DF;}
</style>
<g>
	<path class="st0" d="M31.69,5.45c2.33,0,3.77-0.64,3.77-0.64c0.2,0.2,0.44,0.68,0.44,1.33c0,2.09-1.36,3.77-4.86,3.77
		c-2.85,0-4.34-0.64-6.66-1.36l-3.81,21.88c-0.48,2.81-0.04,3.81-0.04,3.81s-0.64,0.4-2.29,0.4c-2.97,0-3.53-1.29-3.01-4.38
		L19.01,8.7c0.16-0.96,0.2-1.57,0.2-1.57c-1.24-0.24-1.81-0.4-3.33-0.4c-3.65,0-5.62,2.05-5.62,4.34c0,1.12,0.6,1.85,1.61,1.85
		c0.44,0,0.68-0.12,0.68-0.12s0.04,0.12,0.04,0.36c0,0.96-1,2.25-3.05,2.25c-2.61,0-4.22-1.61-4.22-4.01
		c0-3.97,3.53-6.86,10.64-6.86C20.57,4.53,23.74,5.45,31.69,5.45z"/>
	<path class="st0" d="M36.59,20.3c2.57-4.34,5.26-5.74,7.07-5.74c1.97,0,3.21,1.08,3.21,3.13c0,2.25-1.36,3.85-3.33,3.85
		c-1.04,0-1.81-0.24-1.81-0.24s0.52-0.92,0.52-2.01c0-0.56-0.24-0.88-0.84-0.88c-0.64,0-1.53,0.52-2.85,2.37
		c-1.53,2.13-2.85,4.62-3.81,10.28c-0.4,2.37,0,3.21,0,3.21s-0.6,0.36-2.09,0.36c-3.09,0-3.45-1.16-2.97-3.97l2.13-12.29
		c0.44-2.53,0.04-3.45,0.04-3.45s0.6-0.36,2.09-0.36c3.09,0,3.45,1.28,2.97,3.97L36.59,20.3z"/>
	<path class="st0" d="M64.49,27.61c-0.44,2.41,0.28,3.53,1.73,3.53c1.36,0,3.17-1.32,4.22-3.49c0.52,0,0.88,0.32,0.76,1.04
		c-0.4,2.13-3.29,5.94-7.19,5.94c-2.65,0-4.5-1.65-4.7-4.54c-1.65,2.97-3.85,4.54-6.14,4.54c-3.29,0-5.9-2.21-5.9-6.91
		c0-8.95,5.22-13.17,9.92-13.17c2.01,0,3.41,0.8,4.34,1.97c0.64-1.45,1.65-1.97,3.61-1.97c1.36,0,2.01,0.4,2.01,0.4
		s-0.52,0.72-0.92,2.89L64.49,27.61z M60.51,21.11l0.36-1.89c-0.36-0.8-1.12-1.93-2.65-1.93c-2.73,0-5.82,4.05-5.82,10.52
		c0,2.25,0.88,3.33,2.37,3.33C57.62,31.14,59.75,25.12,60.51,21.11z"/>
	<path class="st0" d="M93.63,24.32c0.4,0.28,0.32,0.76-0.12,1.16c-0.6,0.56-1.85,0.84-3.37,0.84c-2.25,0-3.81-0.92-3.81-0.92
		c-0.56,1.45-1.4,3.45-2.45,4.98c-1.65,2.37-3.89,4.26-6.91,4.26c-4.05,0-6.54-2.97-6.54-7.63c0-2.25,0.24-4.38,0.6-6.62l0.32-2.01
		c0.4-2.61,0.04-3.45,0.04-3.45s0.6-0.36,2.09-0.36c3.09,0,3.45,1.2,2.97,3.97l-0.6,3.41c-0.24,1.41-0.44,2.97-0.44,4.18
		c0,3.29,1.12,5.02,3.33,5.02c2.49,0,4.86-2.77,5.58-7.67c-1.08-1.65-1.77-3.77-1.77-5.94c0-1.69,1.04-2.97,2.73-2.97
		c1.36,0,2.53,0.8,2.53,3.01c0,1.81-0.32,3.93-0.84,5.9c0,0,0.96,1.24,3.73,1.24C92.67,24.72,93.63,24.32,93.63,24.32z"/>
	<path class="st0" d="M90.7,25.96c0-7.11,5.42-11.4,10.76-11.4c4.09,0,5.74,2.13,5.74,4.17c0,3.65-4.22,6.06-11.28,7.39
		c0.24,3.01,2.33,5.34,5.74,5.34c4.3,0,6.74-2.13,7.83-3.81c0.52,0,0.8,0.32,0.64,1.04c-0.36,1.77-4.22,5.94-10.36,5.94
		C94.51,34.64,90.7,31.38,90.7,25.96z M95.96,24.24c4.9-1.16,6.95-3.61,6.95-6.26c0-0.84-0.56-1.4-1.41-1.4
		C99.21,16.57,96.4,19.22,95.96,24.24z"/>
	<path class="st0" d="M113.18,5.13c0.44-2.53,0.04-3.45,0.04-3.45s0.6-0.36,2.09-0.36c3.09,0,3.45,1.16,2.97,3.97l-3.85,22.12
		c-0.48,2.89,0.16,3.73,1.2,3.73c1.16,0,1.53-1.12,1.53-1.12c0.56,0,0.84,0.44,0.76,1.17c-0.16,1.61-2.05,3.45-4.66,3.45
		c-2.09,0-4.05-1.65-4.05-4.74c0-1.16,0.08-2.49,0.36-4.09L113.18,5.13z"/>
	<path class="st0" d="M149.79,19.62c3.57,0.6,6.06,3.13,6.06,6.42c0,4.74-3.85,8.59-12.04,8.59c-4.18,0-6.38-0.92-7.31-2.01
		c-0.56-0.6-0.72-1.29-0.72-2.09c0-0.64,0.12-1.41,0.24-2.05l3.45-19.79c0.12-0.8,0.2-1.45,0.2-1.97h-0.36
		c-3.65,0-5.46,2.05-5.46,4.34c0,1.12,0.6,1.85,1.61,1.85c0.44,0,0.68-0.12,0.68-0.12s0.04,0.12,0.04,0.36c0,0.96-1,2.25-3.05,2.25
		c-2.61,0-4.22-1.61-4.22-4.01c0-3.97,3.65-6.86,10.12-6.86h5.38c9.43,0,12.73,3.37,12.73,7.63
		C157.14,15.49,154.85,19.1,149.79,19.62z M142.73,20.78l-1.49,8.47c-0.24,1.29-0.28,2.45-0.2,3.05c0.6,0.08,1.24,0.12,2.09,0.12
		c4.46,0,7.15-2.97,7.15-6.83c0-3.17-1.93-4.82-4.82-4.82H142.73z M145.17,6.73l-2.09,11.84h2.37c3.13,0,6.1-2.45,6.1-6.86
		c0-3.21-2.01-4.98-5.3-4.98H145.17z"/>
	<path class="st0" d="M171.79,28.25c-0.56,1.12-1.16,2.13-1.81,2.97c-1.69,2.29-3.45,3.41-5.66,3.41c-2.69,0-4.38-1.89-4.38-4.66
		c0-1.49,0.12-2.85,0.48-4.94l1.16-6.66c0.44-2.53,0.04-3.45,0.04-3.45s0.6-0.36,2.09-0.36c3.09,0,3.45,1.16,2.97,3.97l-1.61,9.27
		c-0.4,2.29,0.16,3.33,1.32,3.33c0.88,0,1.93-1.08,2.97-2.69c1.73-2.61,3.45-6.91,4.05-10.48c0.36-2.21,0-3.05,0-3.05
		s0.6-0.36,2.09-0.36c3.09,0,3.45,1.16,2.97,3.97l-1.57,9.07c-0.4,2.41,0.28,3.53,1.73,3.53c1.37,0,3.17-1.32,4.21-3.49
		c0.52,0,0.88,0.32,0.76,1.04c-0.4,2.13-3.29,5.94-7.19,5.94c-2.77,0-4.7-1.81-4.7-5.02C171.75,29.26,171.75,28.81,171.79,28.25z"/>
	<path class="st0" d="M194.15,30.06c-1.69,2.97-3.85,4.58-6.18,4.58c-3.29,0-5.9-2.21-5.9-6.91c0-8.95,5.22-13.17,9.92-13.17
		c1.89,0,3.25,0.68,4.17,1.77l1.93-11.2c0.44-2.53,0.04-3.45,0.04-3.45s0.6-0.36,2.09-0.36c3.09,0,3.45,1.16,2.97,3.97l-3.85,22.32
		c-0.4,2.41,0.28,3.53,1.73,3.53c1.37,0,3.17-1.32,4.22-3.49c0.52,0,0.88,0.32,0.76,1.04c-0.4,2.13-3.29,5.94-7.19,5.94
		C196.2,34.64,194.31,32.99,194.15,30.06z M195.31,21.11l0.36-1.89c-0.36-0.8-1.12-1.93-2.65-1.93c-2.73,0-5.82,4.05-5.82,10.52
		c0,2.25,0.88,3.33,2.37,3.33C192.42,31.14,194.55,25.12,195.31,21.11z"/>
	<path class="st0" d="M216.55,30.06c-1.69,2.97-3.85,4.58-6.18,4.58c-3.29,0-5.9-2.21-5.9-6.91c0-8.95,5.22-13.17,9.92-13.17
		c1.89,0,3.25,0.68,4.17,1.77l1.93-11.2c0.44-2.53,0.04-3.45,0.04-3.45s0.6-0.36,2.09-0.36c3.09,0,3.45,1.16,2.97,3.97l-3.85,22.32
		c-0.4,2.41,0.28,3.53,1.73,3.53c1.37,0,3.17-1.32,4.22-3.49c0.52,0,0.88,0.32,0.76,1.04c-0.4,2.13-3.29,5.94-7.19,5.94
		C218.6,34.64,216.71,32.99,216.55,30.06z M217.71,21.11l0.36-1.89c-0.36-0.8-1.12-1.93-2.65-1.93c-2.73,0-5.82,4.05-5.82,10.52
		c0,2.25,0.88,3.33,2.37,3.33C214.82,31.14,216.95,25.12,217.71,21.11z"/>
	<path class="st0" d="M243.12,34.19c-1.57,9.31-5.3,14.49-11.24,14.49c-2.73,0-4.5-1.73-4.5-4.21c0-2.37,1.41-4.54,3.37-6.22
		c1.97-1.73,4.05-2.93,7.35-4.54l0.88-5.18c-0.52,1-1.12,1.89-1.69,2.69c-1.69,2.29-3.45,3.41-5.66,3.41
		c-2.69,0-4.38-1.89-4.38-4.66c0-1.49,0.12-2.85,0.48-4.94l1.16-6.66c0.44-2.53,0.04-3.45,0.04-3.45s0.6-0.36,2.09-0.36
		c3.09,0,3.45,1.16,2.97,3.97l-1.61,9.27c-0.4,2.33,0.16,3.33,1.32,3.33c0.88,0,1.93-1.08,2.97-2.69c1.57-2.37,3.17-6.02,3.97-10.08
		c0.48-2.53,0.04-3.45,0.04-3.45s0.6-0.36,2.09-0.36c3.09,0,3.45,1.16,2.97,3.97L243.12,34.19z M237.66,36.24
		c-2.65,1.37-4.5,2.53-5.66,3.69c-1.57,1.53-2.37,2.89-2.37,4.3c0,1.04,0.6,1.81,1.85,1.81C234.29,46.04,236.46,42.66,237.66,36.24z
		"/>
	<path class="st0" d="M252.2,29.74c1.53,0,2.49,1.08,2.49,2.53c0,1.4-1.12,2.77-2.89,2.77c-1.45,0-2.41-1-2.41-2.41
		C249.38,30.98,250.67,29.74,252.2,29.74z"/>
</g>
</svg>
